<svg width="22" height="22" viewBox="0 0 22 22" fill="none" xmlns="http://www.w3.org/2000/svg">
<path d="M6 14.002L6.00868 13.9996M21 11C21 5.47715 16.5228 1 11 1C5.47715 1 1 5.47715 1 11C1 16.5228 5.47715 21 11 21C11.8417 21 13 21.1163 13 20C13 19.391 12.6832 18.9212 12.3686 18.4544C11.9082 17.7715 11.4523 17.0953 12 16C12.6667 14.6667 13.7778 14.6667 15.4815 14.6667C16.3334 14.6667 17.3334 14.6667 18.5 14.5C20.601 14.1999 21 12.9084 21 11ZM10 7.5C10 8.32843 9.32843 9 8.5 9C7.67157 9 7 8.32843 7 7.5C7 6.67157 7.67157 6 8.5 6C9.32843 6 10 6.67157 10 7.5ZM17 8.5C17 9.32843 16.3284 10 15.5 10C14.6716 10 14 9.32843 14 8.5C14 7.67157 14.6716 7 15.5 7C16.3284 7 17 7.67157 17 8.5Z" stroke="#73818D" stroke-width="1.5" stroke-linecap="round"/>
</svg>
