<svg width="24" height="24" viewBox="0 0 24 24" fill="none" xmlns="http://www.w3.org/2000/svg">
<path d="M20.8678 2.43885L20.3375 2.96914L20.3375 2.96919L20.8678 2.43885ZM21.5602 3.13122L22.0906 2.60088L22.0905 2.60088L21.5602 3.13122ZM21.5602 5.25254L21.0299 4.72218L21.025 4.72717L21.5602 5.25254ZM17.9328 8.9482L18.4632 9.4785L18.4681 9.47356L17.9328 8.9482ZM16.8858 9.5L16.7481 8.76274C16.741 8.76408 16.7338 8.76552 16.7267 8.76707L16.8858 9.5ZM14.6376 9.98805L14.7967 10.721L14.7967 10.721L14.6376 9.98805ZM14.0426 9.39476L13.3093 9.23773L13.3092 9.23782L14.0426 9.39476ZM14.5212 7.15944L15.2546 7.31646C15.256 7.30998 15.2573 7.30348 15.2585 7.29697L14.5212 7.15944ZM15.0729 6.1124L14.5426 5.58206L14.5426 5.58211L15.0729 6.1124ZM18.7465 2.43885L18.2162 1.90851L18.2162 1.90851L18.7465 2.43885ZM6.25 11.25C9.01141 11.25 11.25 9.01143 11.25 6.25H9.75003C9.75003 8.18298 8.18301 9.74998 6.25 9.74998V11.25ZM11.25 6.25C11.25 3.48857 9.01142 1.25 6.25 1.25V2.75C8.183 2.75 9.75003 4.31701 9.75003 6.25H11.25ZM6.25 1.25C3.48858 1.25 1.25 3.48857 1.25 6.25H2.75C2.75 4.317 4.317 2.75 6.25 2.75V1.25ZM1.25 6.25C1.25 9.01143 3.48858 11.25 6.25 11.25V9.74998C4.317 9.74998 2.75 8.18299 2.75 6.25H1.25ZM17.75 22.75C20.5114 22.75 22.75 20.5114 22.75 17.75H21.25C21.25 19.683 19.683 21.25 17.75 21.25V22.75ZM22.75 17.75C22.75 14.9886 20.5114 12.75 17.75 12.75V14.25C19.683 14.25 21.25 15.817 21.25 17.75H22.75ZM17.75 12.75C14.9886 12.75 12.75 14.9886 12.75 17.75H14.25C14.25 15.817 15.817 14.25 17.75 14.25V12.75ZM12.75 17.75C12.75 20.5114 14.9886 22.75 17.75 22.75V21.25C15.817 21.25 14.25 19.683 14.25 17.75H12.75ZM6.25 22.75C9.01142 22.75 11.25 20.5114 11.25 17.75H9.75003C9.75003 19.683 8.183 21.25 6.25 21.25V22.75ZM11.25 17.75C11.25 14.9886 9.01142 12.75 6.25 12.75V14.25C8.183 14.25 9.75003 15.817 9.75003 17.75H11.25ZM6.25 12.75C3.48858 12.75 1.25 14.9886 1.25 17.75H2.75C2.75 15.817 4.317 14.25 6.25 14.25V12.75ZM1.25 17.75C1.25 20.5114 3.48858 22.75 6.25 22.75V21.25C4.317 21.25 2.75 19.683 2.75 17.75H1.25ZM20.3375 2.96919L21.0299 3.66156L22.0905 2.60088L21.3981 1.90851L20.3375 2.96919ZM21.0299 3.66156C21.3228 3.95444 21.3228 4.4293 21.0299 4.7222L22.0906 5.78287C22.9693 4.90419 22.9693 3.47956 22.0906 2.60088L21.0299 3.66156ZM21.025 4.72717L17.3976 8.42283L18.4681 9.47356L22.0955 5.7779L21.025 4.72717ZM17.4025 8.41791C17.2242 8.59621 16.9961 8.71644 16.7481 8.76274L17.0235 10.2372C17.569 10.1354 18.0709 9.87088 18.4632 9.47848L17.4025 8.41791ZM16.7267 8.76707L14.4785 9.25512L14.7967 10.721L17.0449 10.2329L16.7267 8.76707ZM14.4785 9.25511C14.656 9.21659 14.814 9.37414 14.776 9.55169L13.3092 9.23782C13.1192 10.1257 13.9094 10.9136 14.7967 10.721L14.4785 9.25511ZM14.776 9.55178L15.2546 7.31646L13.7879 7.00241L13.3093 9.23773L14.776 9.55178ZM15.2585 7.29697C15.3047 7.0492 15.4249 6.82108 15.6033 6.64268L14.5426 5.58211C14.1503 5.97441 13.8857 6.47629 13.7839 7.0219L15.2585 7.29697ZM15.6033 6.64273L19.2769 2.96918L18.2162 1.90851L14.5426 5.58206L15.6033 6.64273ZM19.2769 2.96919C19.5698 2.67626 20.0447 2.67633 20.3375 2.96914L21.3982 1.90855C20.5196 1.02981 19.0949 1.02987 18.2162 1.90851L19.2769 2.96919Z" fill="#73818D"/>
</svg>
