<svg width="56" height="52" viewBox="0 0 56 52" fill="none" xmlns="http://www.w3.org/2000/svg">
<path d="M38.1101 23.0931C38.1237 23.0931 38.1376 23.093 38.1514 23.093C42.7379 23.093 46.456 26.8179 46.456 31.4129C46.456 35.6953 43.2264 39.2219 39.0741 39.6818M38.1101 23.0931C38.1374 22.7886 38.1514 22.4803 38.1514 22.1686C38.1514 16.5526 33.6072 12 28.0014 12C22.6925 12 18.3355 16.0834 17.8891 21.2862M38.1101 23.0931C37.9213 25.1906 37.0969 27.1043 35.8313 28.6395M17.8891 21.2862C13.2082 21.7324 9.54688 25.682 9.54688 30.4883C9.54688 34.9606 12.7169 38.6912 16.9287 39.5477M17.8891 21.2862C18.1804 21.2584 18.4756 21.2442 18.7741 21.2442C20.8518 21.2442 22.7691 21.9321 24.3114 23.093M28.4787 30.3463C31.6893 30.421 34.2592 32.2815 34.2591 36.327C34.2591 37.4297 34.0682 38.5832 33.7255 39.6818M28.4787 30.3463C28.4114 30.3448 28.3439 30.344 28.2761 30.344C24.9717 30.3439 22.293 32.1967 22.293 36.327C22.293 37.4297 22.4839 38.5832 22.8267 39.6818M28.4787 30.3463V30.2955C28.4787 26.35 25.7211 23.8788 24.3423 23.1364M28.4787 30.3463V40" stroke="url(#paint0_linear_33_2576)" stroke-width="2.54545" stroke-linecap="round" stroke-linejoin="round"/>
<defs>
<linearGradient id="paint0_linear_33_2576" x1="9.54688" y1="12" x2="50.9241" y2="22.6655" gradientUnits="userSpaceOnUse">
<stop stop-color="#FE911D"/>
<stop offset="1" stop-color="#0993A7"/>
</linearGradient>
</defs>
</svg>
