<svg width="22" height="22" viewBox="0 0 22 22" fill="none" xmlns="http://www.w3.org/2000/svg">
<path d="M4.75 16.5C4.75 16.9142 5.08579 17.25 5.5 17.25C5.91421 17.25 6.25 16.9142 6.25 16.5H4.75ZM6.25 13.5C6.25 13.0858 5.91421 12.75 5.5 12.75C5.08579 12.75 4.75 13.0858 4.75 13.5H6.25ZM9.75 16.5C9.75 16.9142 10.0858 17.25 10.5 17.25C10.9142 17.25 11.25 16.9142 11.25 16.5H9.75ZM11.25 7.5C11.25 7.08579 10.9142 6.75 10.5 6.75C10.0858 6.75 9.75 7.08579 9.75 7.5H11.25ZM14.75 16.5C14.75 16.9142 15.0858 17.25 15.5 17.25C15.9142 17.25 16.25 16.9142 16.25 16.5H14.75ZM16.25 12.5C16.25 12.0858 15.9142 11.75 15.5 11.75C15.0858 11.75 14.75 12.0858 14.75 12.5H16.25ZM21.2454 9.99006C21.2399 9.57588 20.8997 9.24458 20.4856 9.25007C20.0714 9.25556 19.7401 9.59576 19.7456 10.0099L21.2454 9.99006ZM19.1088 19.1088L19.6391 19.6392L19.6392 19.6391L19.1088 19.1088ZM2.89124 19.1088L2.3609 19.6391L2.36092 19.6391L2.89124 19.1088ZM2.89124 2.89127L2.36091 2.36094L2.36091 2.36094L2.89124 2.89127ZM11 1.50003V2.25003H11L11 1.50003ZM12 2.25C12.4142 2.24999 12.75 1.91419 12.75 1.49998C12.75 1.08576 12.4142 0.749988 12 0.75L12 2.25ZM6.25 16.5V13.5H4.75V16.5H6.25ZM11.25 16.5V7.5H9.75V16.5H11.25ZM16.25 16.5V12.5H14.75V16.5H16.25ZM19.75 4.5C19.75 5.74264 18.7427 6.75 17.5 6.75V8.25C19.5711 8.25 21.25 6.57106 21.25 4.5H19.75ZM17.5 6.75C16.2573 6.75 15.25 5.74264 15.25 4.5H13.75C13.75 6.57106 15.4289 8.25 17.5 8.25V6.75ZM15.25 4.5C15.25 3.25736 16.2573 2.25 17.5 2.25V0.75C15.4289 0.75 13.75 2.42894 13.75 4.5H15.25ZM17.5 2.25C18.7427 2.25 19.75 3.25736 19.75 4.5H21.25C21.25 2.42894 19.5711 0.75 17.5 0.75V2.25ZM20.4955 10C19.7456 10.0099 19.7456 10.0099 19.7456 10.0099C19.7456 10.0099 19.7456 10.0099 19.7456 10.0099C19.7456 10.0099 19.7456 10.0099 19.7456 10.0099C19.7456 10.0099 19.7456 10.01 19.7456 10.01C19.7456 10.0102 19.7456 10.0104 19.7456 10.0106C19.7456 10.0112 19.7456 10.0121 19.7456 10.0133C19.7456 10.0158 19.7457 10.0195 19.7457 10.0246C19.7459 10.0348 19.746 10.0502 19.7462 10.0709C19.7467 10.1122 19.7472 10.1745 19.7478 10.2574C19.7489 10.4231 19.75 10.6715 19.75 11H21.25C21.25 10.668 21.2489 10.4164 21.2477 10.2473C21.2472 10.1627 21.2466 10.0988 21.2462 10.0559C21.246 10.0344 21.2458 10.0181 21.2456 10.0072C21.2456 10.0017 21.2455 9.99749 21.2455 9.99464C21.2455 9.99322 21.2455 9.99212 21.2455 9.99136C21.2454 9.99098 21.2454 9.99068 21.2454 9.99046C21.2454 9.99035 21.2454 9.99026 21.2454 9.9902C21.2454 9.99017 21.2454 9.99014 21.2454 9.99011C21.2454 9.9901 21.2454 9.99009 21.2454 9.99008C21.2454 9.99007 21.2454 9.99006 20.4955 10ZM19.75 11C19.75 13.2604 19.7484 14.8802 19.5828 16.1121C19.4201 17.3225 19.1115 18.0454 18.5785 18.5785L19.6392 19.6391C20.4973 18.7809 20.8843 17.6887 21.0694 16.312C21.2516 14.9569 21.25 13.218 21.25 11H19.75ZM18.5785 18.5785C18.0454 19.1115 17.3224 19.4201 16.1121 19.5828C14.8802 19.7484 13.2604 19.75 11 19.75V21.25C13.2179 21.25 14.9569 21.2516 16.312 21.0694C17.6886 20.8843 18.7809 20.4973 19.6391 19.6392L18.5785 18.5785ZM11 19.75C8.73963 19.75 7.1198 19.7484 5.88789 19.5828C4.67756 19.4201 3.95461 19.1115 3.42156 18.5785L2.36092 19.6391C3.21912 20.4973 4.31137 20.8843 5.68803 21.0694C7.04311 21.2516 8.78203 21.25 11 21.25V19.75ZM3.42158 18.5785C2.88853 18.0454 2.57994 17.3224 2.41722 16.1121C2.25159 14.8802 2.25 13.2604 2.25 11H0.75C0.75 13.218 0.748407 14.9569 0.930593 16.312C1.11568 17.6887 1.50271 18.7809 2.3609 19.6391L3.42158 18.5785ZM2.25 11C2.25 8.73964 2.25159 7.11982 2.41722 5.88792C2.57994 4.6776 2.88853 3.95465 3.42157 3.4216L2.36091 2.36094C1.50271 3.21914 1.11568 4.3114 0.930593 5.68805C0.748407 7.04313 0.75 8.78205 0.75 11H2.25ZM3.42157 3.4216C3.95462 2.88856 4.67757 2.57997 5.8879 2.41725C7.1198 2.25162 8.73963 2.25003 11 2.25003V0.75003C8.78203 0.75003 7.04311 0.748437 5.68803 0.930623C4.31137 1.11571 3.21911 1.50274 2.36091 2.36094L3.42157 3.4216ZM11 2.25003L12 2.25L12 0.75L11 0.75003L11 2.25003Z" fill="#73818D"/>
</svg>
