<svg width="68" height="68" viewBox="0 0 68 68" fill="none" xmlns="http://www.w3.org/2000/svg">
<rect width="68" height="68" rx="34" fill="#0993A7"/>
<path d="M42.25 23.5C43.4926 23.5 44.5 24.5074 44.5 25.75C44.5 26.9926 43.4926 28 42.25 28C41.0074 28 40 26.9926 40 25.75C40 24.5074 41.0074 23.5 42.25 23.5Z" stroke="white" stroke-width="2.25" stroke-linecap="round" stroke-linejoin="round"/>
<path d="M20.1613 32.7158C18.6566 34.3964 18.6243 36.9319 20.0052 38.7155C22.7457 42.2549 25.7451 45.2543 29.2845 47.9947C31.0681 49.3757 33.6036 49.3433 35.2842 47.8387C39.8469 43.7533 44.0253 39.4838 48.0579 34.7918C48.4566 34.328 48.7059 33.7596 48.7618 33.1504C49.0093 30.457 49.5178 22.697 47.4105 20.5896C45.303 18.4822 37.543 18.9907 34.8496 19.2381C34.2405 19.2941 33.672 19.5435 33.208 19.9422C28.5162 23.9747 24.2467 28.1532 20.1613 32.7158Z" stroke="white" stroke-width="2.25"/>
<path d="M26.5 37L31 41.5" stroke="white" stroke-width="2.25" stroke-linecap="round" stroke-linejoin="round"/>
</svg>
