<svg width="68" height="68" viewBox="0 0 68 68" fill="none" xmlns="http://www.w3.org/2000/svg">
<rect x="5" y="5" width="58" height="58" rx="29" fill="#17A817"/>
<rect x="5" y="5" width="58" height="58" rx="29" stroke="#17A817" stroke-width="10" stroke-linecap="round" stroke-dasharray="1 10"/>
<path d="M22.83 28.976V31.132H18.042V33.092H22.186V35.136H18.042V39H15.424V28.976H22.83ZM23.9819 28.976H28.9239C29.9413 28.976 30.7159 29.1347 31.2479 29.452C32.1533 29.984 32.6059 30.7913 32.6059 31.874C32.6059 32.434 32.4659 32.9333 32.1859 33.372C31.9059 33.8107 31.5279 34.128 31.0519 34.324C31.4719 34.436 31.8079 34.688 32.0599 35.08C32.2279 35.3413 32.3399 35.612 32.3959 35.892C32.4613 36.1627 32.5359 36.7833 32.6199 37.754C32.6853 38.37 32.7693 38.7527 32.8719 38.902L32.9559 39H30.2819C30.1979 38.804 30.0999 38.104 29.9879 36.9C29.9133 36.2933 29.7453 35.8733 29.4839 35.64C29.2226 35.3973 28.7979 35.276 28.2099 35.276H26.5999V39H23.9819V28.976ZM26.5999 31.034V33.4H28.4479C29.5026 33.4 30.0299 32.9987 30.0299 32.196C30.0299 31.4213 29.4933 31.034 28.4199 31.034H26.5999ZM42.5183 28.976V31.132H37.1143V32.798H42.0563V34.856H37.1143V36.844H42.6443V39H34.4963V28.976H42.5183ZM52.1569 28.976V31.132H46.7529V32.798H51.6949V34.856H46.7529V36.844H52.2829V39H44.1349V28.976H52.1569Z" fill="white"/>
</svg>
