<svg width="22" height="22" viewBox="0 0 22 22" fill="none" xmlns="http://www.w3.org/2000/svg">
<path d="M2.89124 2.89124L2.36091 2.36091L2.36091 2.36091L2.89124 2.89124ZM19.1088 2.89124L19.6391 2.36092L19.6391 2.3609L19.1088 2.89124ZM19.1088 19.1088L19.6391 19.6392L19.6392 19.6391L19.1088 19.1088ZM2.89124 19.1088L2.3609 19.6391L2.36092 19.6391L2.89124 19.1088ZM16 8.25C16.4142 8.25 16.75 7.91421 16.75 7.5C16.75 7.08579 16.4142 6.75 16 6.75V8.25ZM6 13.75C5.58579 13.75 5.25 14.0858 5.25 14.5C5.25 14.9142 5.58579 15.25 6 15.25V13.75ZM2.25 11C2.25 8.73963 2.25159 7.1198 2.41722 5.8879C2.57994 4.67757 2.88853 3.95462 3.42157 3.42157L2.36091 2.36091C1.50271 3.21911 1.11568 4.31137 0.930593 5.68803C0.748407 7.04311 0.75 8.78203 0.75 11H2.25ZM3.42157 3.42157C3.95462 2.88853 4.67757 2.57994 5.8879 2.41722C7.1198 2.25159 8.73963 2.25 11 2.25V0.75C8.78203 0.75 7.04311 0.748407 5.68803 0.930593C4.31137 1.11568 3.21911 1.50271 2.36091 2.36091L3.42157 3.42157ZM11 2.25C13.2604 2.25 14.8802 2.25159 16.1121 2.41722C17.3224 2.57994 18.0454 2.88853 18.5785 3.42158L19.6391 2.3609C18.7809 1.50271 17.6886 1.11568 16.312 0.930593C14.9569 0.748407 13.2179 0.75 11 0.75V2.25ZM18.5785 3.42156C19.1115 3.95461 19.4201 4.67756 19.5828 5.88789C19.7484 7.1198 19.75 8.73963 19.75 11H21.25C21.25 8.78203 21.2516 7.04311 21.0694 5.68803C20.8843 4.31137 20.4973 3.21912 19.6391 2.36092L18.5785 3.42156ZM19.75 11C19.75 13.2604 19.7484 14.8802 19.5828 16.1121C19.4201 17.3224 19.1115 18.0454 18.5785 18.5785L19.6392 19.6391C20.4973 18.7809 20.8843 17.6886 21.0694 16.312C21.2516 14.9569 21.25 13.2179 21.25 11H19.75ZM18.5785 18.5785C18.0454 19.1115 17.3224 19.4201 16.1121 19.5828C14.8802 19.7484 13.2604 19.75 11 19.75V21.25C13.2179 21.25 14.9569 21.2516 16.312 21.0694C17.6886 20.8843 18.7809 20.4973 19.6391 19.6392L18.5785 18.5785ZM11 19.75C8.73963 19.75 7.1198 19.7484 5.88789 19.5828C4.67756 19.4201 3.95461 19.1115 3.42156 18.5785L2.36092 19.6391C3.21912 20.4973 4.31137 20.8843 5.68803 21.0694C7.04311 21.2516 8.78203 21.25 11 21.25V19.75ZM3.42158 18.5785C2.88853 18.0454 2.57994 17.3224 2.41722 16.1121C2.25159 14.8802 2.25 13.2604 2.25 11H0.75C0.75 13.2179 0.748407 14.9569 0.930593 16.312C1.11568 17.6886 1.50271 18.7809 2.3609 19.6391L3.42158 18.5785ZM7.5 8.25C7.08578 8.25 6.75 7.91422 6.75 7.5H5.25C5.25 8.74264 6.25736 9.75 7.5 9.75V8.25ZM6.75 7.5C6.75 7.08578 7.08578 6.75 7.5 6.75V5.25C6.25736 5.25 5.25 6.25736 5.25 7.5H6.75ZM7.5 6.75C7.91422 6.75 8.25 7.08578 8.25 7.5H9.75C9.75 6.25736 8.74264 5.25 7.5 5.25V6.75ZM8.25 7.5C8.25 7.91422 7.91422 8.25 7.5 8.25V9.75C8.74264 9.75 9.75 8.74264 9.75 7.5H8.25ZM14.5 16.75C15.7426 16.75 16.75 15.7426 16.75 14.5H15.25C15.25 14.9142 14.9142 15.25 14.5 15.25V16.75ZM16.75 14.5C16.75 13.2574 15.7426 12.25 14.5 12.25V13.75C14.9142 13.75 15.25 14.0858 15.25 14.5H16.75ZM14.5 12.25C13.2574 12.25 12.25 13.2574 12.25 14.5H13.75C13.75 14.0858 14.0858 13.75 14.5 13.75V12.25ZM12.25 14.5C12.25 15.7426 13.2574 16.75 14.5 16.75V15.25C14.0858 15.25 13.75 14.9142 13.75 14.5H12.25ZM9 8.25H16V6.75H9V8.25ZM13 13.75H6V15.25H13V13.75Z" fill="#FE911D"/>
</svg>
