<svg width="24" height="24" viewBox="0 0 24 24" fill="none" xmlns="http://www.w3.org/2000/svg">
<path d="M9.5 21C10.8807 22.3333 13.1193 22.3333 14.5 21" stroke="#131313" stroke-opacity="0.32" stroke-width="1.5" stroke-linecap="round" stroke-linejoin="round"/>
<path d="M17.052 13.132L16.3414 12.892L16.3414 12.8921L17.052 13.132ZM18.0011 12.3289L18.312 13.0114L18.312 13.0114L18.0011 12.3289ZM18.8968 12.0042L18.8364 11.2566L18.8363 11.2566L18.8968 12.0042ZM19.618 12.1593L19.251 12.8134L19.2511 12.8134L19.618 12.1593ZM20.3079 12.873L20.8869 12.3963L20.8869 12.3962L20.3079 12.873ZM21.8955 15.2236L21.172 15.4212L21.172 15.4213L21.8955 15.2236ZM21.8955 16.7764L21.172 16.5787L21.172 16.5788L21.8955 16.7764ZM20.2598 19.1854L19.6808 18.7087L19.6808 18.7087L20.2598 19.1854ZM19.618 19.8407L19.985 20.4948L19.9851 20.4947L19.618 19.8407ZM18.8968 19.9958L18.8363 20.7434L18.8364 20.7434L18.8968 19.9958ZM18.0011 19.6711L18.312 18.9886L18.312 18.9886L18.0011 19.6711ZM17.052 18.868L16.3414 19.1079L16.3414 19.108L17.052 18.868ZM6.63591 12.6722L6.14374 13.2381L6.14375 13.2381L6.63591 12.6722ZM5.99891 12.329L6.30985 11.6465L6.30971 11.6464L5.99891 12.329ZM5.10316 12.0044L5.16366 11.2568H5.16366L5.10316 12.0044ZM3.69213 12.8731L3.11315 12.3964L3.11313 12.3964L3.69213 12.8731ZM2.10446 15.2236L2.82795 15.4213L2.82795 15.4212L2.10446 15.2236ZM2.10446 16.7764L2.82795 16.5788L2.82795 16.5787L2.10446 16.7764ZM3.74021 19.1852L4.31921 18.7085H4.31921L3.74021 19.1852ZM5.10316 19.9956L5.04266 19.248H5.04264L5.10316 19.9956ZM5.99891 19.6709L5.68813 18.9883L5.68799 18.9884L5.99891 19.6709ZM6.63591 19.3278L6.14375 18.7619L6.14374 18.7619L6.63591 19.3278ZM1.25 16C1.25 16.4142 1.58579 16.75 2 16.75C2.41421 16.75 2.75 16.4142 2.75 16H1.25ZM22 12H21.25V12L22 12ZM21.2501 16C21.2501 16.4142 21.5859 16.75 22.0001 16.75C22.4143 16.75 22.7501 16.4142 22.7501 16L21.2501 16ZM17.75 13.8045C17.75 13.6227 17.7503 13.5198 17.7551 13.4424C17.7593 13.3739 17.7653 13.3638 17.7626 13.3719L16.3414 12.8921C16.2406 13.1905 16.25 13.5114 16.25 13.8045H17.75ZM17.7626 13.372C17.7774 13.3279 17.8006 13.291 17.8736 13.2381C17.9688 13.1691 18.0922 13.1116 18.312 13.0114L17.6902 11.6464C17.358 11.7977 16.6138 12.0856 16.3414 12.892L17.7626 13.372ZM18.312 13.0114C18.8152 12.7822 18.8977 12.7566 18.9573 12.7518L18.8363 11.2566C18.4511 11.2878 18.0848 11.4666 17.6902 11.6464L18.312 13.0114ZM18.9572 12.7518C19.0648 12.7431 19.1684 12.767 19.251 12.8134L19.985 11.5052C19.636 11.3094 19.2338 11.2245 18.8364 11.2566L18.9572 12.7518ZM19.2511 12.8134C19.2861 12.8331 19.3416 12.8769 19.4286 12.9765C19.5419 13.1063 19.5779 13.1663 19.7289 13.3498L20.8869 12.3962C20.8336 12.3316 20.6677 12.115 20.5586 11.9901C20.4233 11.835 20.236 11.646 19.9849 11.5052L19.2511 12.8134ZM19.7289 13.3497C20.2077 13.9313 20.5401 14.3359 20.7775 14.6729C21.0097 15.0026 21.1178 15.2227 21.172 15.4212L22.619 15.026C22.5006 14.5927 22.2865 14.2104 22.0039 13.8092C21.7265 13.4153 21.3514 12.9605 20.8869 12.3963L19.7289 13.3497ZM21.172 15.4213C21.276 15.8017 21.276 16.1983 21.172 16.5787L22.619 16.9741C22.7936 16.3349 22.7936 15.6651 22.619 15.0259L21.172 15.4213ZM21.172 16.5788C21.0834 16.9033 20.8882 17.2364 20.6081 17.603C20.3072 17.9967 20.0229 18.2932 19.6808 18.7087L20.8388 19.6621C21.0854 19.3626 21.4931 18.9154 21.8 18.5137C22.1276 18.0849 22.4559 17.571 22.619 16.974L21.172 16.5788ZM19.6808 18.7087C19.3399 19.1227 19.2889 19.1654 19.2509 19.1867L19.9851 20.4947C20.3273 20.3026 20.5775 19.9795 20.8388 19.6621L19.6808 18.7087ZM19.251 19.1866C19.1684 19.233 19.0648 19.2569 18.9572 19.2482L18.8364 20.7434C19.2338 20.7755 19.636 20.6906 19.985 20.4948L19.251 19.1866ZM18.9573 19.2482C18.8977 19.2434 18.8152 19.2178 18.312 18.9886L17.6902 20.3536C18.0848 20.5334 18.4511 20.7122 18.8363 20.7434L18.9573 19.2482ZM18.312 18.9886C18.0922 18.8884 17.9688 18.8309 17.8736 18.7619C17.8006 18.709 17.7774 18.6721 17.7626 18.628L16.3414 19.108C16.6138 19.9144 17.358 20.2023 17.6902 20.3536L18.312 18.9886ZM17.7626 18.6281C17.7653 18.6362 17.7593 18.6261 17.7551 18.5576C17.7503 18.4802 17.75 18.3773 17.75 18.1955H16.25C16.25 18.4886 16.2406 18.8095 16.3414 19.1079L17.7626 18.6281ZM17.75 18.1955V13.8045H16.25V18.1955H17.75ZM7.75 13.8045C7.75 13.396 7.76537 12.6605 7.12807 12.1063L6.14375 13.2381C6.18855 13.2771 6.20685 13.3093 6.22179 13.3698C6.24383 13.459 6.25 13.5775 6.25 13.8045H7.75ZM7.12808 12.1063C6.89802 11.9062 6.60493 11.7809 6.30985 11.6465L5.68797 13.0115C6.07157 13.1863 6.11784 13.2156 6.14374 13.2381L7.12808 12.1063ZM6.30971 11.6464C5.91511 11.4668 5.54877 11.288 5.16366 11.2568L5.04266 12.752C5.10235 12.7568 5.18491 12.7824 5.68811 13.0116L6.30971 11.6464ZM5.16366 11.2568C4.04522 11.1663 3.44242 11.9965 3.11315 12.3964L4.27111 13.3498C4.48198 13.0938 4.60737 12.9438 4.74098 12.8438C4.83964 12.77 4.91872 12.7419 5.04266 12.752L5.16366 11.2568ZM3.11313 12.3964C2.64859 12.9606 2.27354 13.4154 1.99611 13.8092C1.71345 14.2104 1.49932 14.5927 1.38097 15.026L2.82795 15.4212C2.8822 15.2227 2.99021 15.0026 3.22239 14.673C3.45981 14.336 3.79229 13.9314 4.27113 13.3498L3.11313 12.3964ZM1.38097 15.0259C1.20634 15.6651 1.20634 16.3349 1.38097 16.9741L2.82795 16.5787C2.72402 16.1983 2.72402 15.8017 2.82795 15.4213L1.38097 15.0259ZM1.38097 16.974C1.54407 17.5711 1.87241 18.0849 2.20007 18.5136C2.5069 18.9151 2.91473 19.3625 3.16121 19.6619L4.31921 18.7085C3.977 18.2929 3.69282 17.9966 3.39189 17.6028C3.11178 17.2363 2.91659 16.9032 2.82795 16.5788L1.38097 16.974ZM3.16121 19.6619C3.50101 20.0746 4.08957 20.8301 5.16368 20.7432L5.04264 19.248C4.92146 19.2579 4.84599 19.2312 4.75656 19.1676C4.63579 19.0817 4.51422 18.9453 4.31921 18.7085L3.16121 19.6619ZM5.16366 20.7432C5.54883 20.712 5.91515 20.5332 6.30983 20.3534L5.68799 18.9884C5.18487 19.2176 5.10229 19.2432 5.04266 19.248L5.16366 20.7432ZM6.30969 20.3535C6.60487 20.2191 6.89796 20.0938 7.12808 19.8937L6.14374 18.7619C6.1179 18.7844 6.07163 18.8137 5.68813 18.9883L6.30969 20.3535ZM7.12807 19.8937C7.76537 19.3395 7.75 18.6039 7.75 18.1954H6.25C6.25 18.4225 6.24383 18.541 6.22179 18.6302C6.20685 18.6907 6.18854 18.7229 6.14375 18.7619L7.12807 19.8937ZM7.75 18.1954V13.8045H6.25V18.1954H7.75ZM2.75 16V12H1.25V16H2.75ZM2.75 12C2.75 6.89136 6.89136 2.75 12 2.75V1.25C6.06294 1.25 1.25 6.06294 1.25 12H2.75ZM12 2.75C17.1086 2.75 21.25 6.89137 21.25 12H22.75C22.75 6.06293 17.937 1.25 12 1.25V2.75ZM21.25 12L21.2501 16L22.7501 16L22.75 12L21.25 12Z" fill="#131313" fill-opacity="0.32"/>
</svg>
