<svg width="16" height="22" viewBox="0 0 16 22" fill="none" xmlns="http://www.w3.org/2000/svg">
<path d="M2.02513 2.02513L2.55546 2.55546L2.55546 2.55546L2.02513 2.02513ZM13.9749 2.02513L14.5052 1.49481L14.5052 1.49478L13.9749 2.02513ZM13.9749 19.9749L14.5052 20.5053L14.5053 20.5052L13.9749 19.9749ZM2.02513 19.9749L1.49478 20.5052L1.4948 20.5052L2.02513 19.9749ZM5.089 1.53402L4.3492 1.65731L4.3492 1.65732L5.089 1.53402ZM5.77519 3.62204L5.27744 4.18306L5.27745 4.18307L5.77519 3.62204ZM10.2248 3.62204L9.72707 3.061L9.72706 3.06101L10.2248 3.62204ZM10.911 1.53402L11.6508 1.65733L11.6508 1.65731L10.911 1.53402ZM1.75 8C1.75 6.32888 1.75159 5.15099 1.87145 4.25948C1.98841 3.38955 2.20547 2.90545 2.55546 2.55546L1.4948 1.4948C0.819658 2.16993 0.524152 3.02335 0.384829 4.05961C0.248407 5.0743 0.25 6.37129 0.25 8H1.75ZM2.55546 2.55546C2.90545 2.20547 3.38955 1.98841 4.25948 1.87145C5.15099 1.75159 6.32888 1.75 8 1.75V0.25C6.37129 0.25 5.0743 0.248407 4.05961 0.384829C3.02335 0.524152 2.16993 0.819659 1.4948 1.4948L2.55546 2.55546ZM8 1.75C9.6711 1.75 10.849 1.75159 11.7405 1.87145C12.6104 1.98841 13.0946 2.20547 13.4446 2.55548L14.5052 1.49478C13.83 0.819658 12.9766 0.524152 11.9404 0.384829C10.9257 0.248407 9.6287 0.25 8 0.25V1.75ZM13.4446 2.55545C13.7945 2.90544 14.0116 3.38955 14.1285 4.25948C14.2484 5.15099 14.25 6.32888 14.25 8H15.75C15.75 6.37129 15.7516 5.0743 15.6152 4.05962C15.4759 3.02335 15.1804 2.16994 14.5052 1.49481L13.4446 2.55545ZM14.25 8V14H15.75V8H14.25ZM14.25 14C14.25 15.6711 14.2484 16.849 14.1285 17.7405C14.0116 18.6104 13.7945 19.0946 13.4445 19.4446L14.5053 20.5052C15.1804 19.83 15.4759 18.9766 15.6152 17.9404C15.7516 16.9257 15.75 15.6287 15.75 14H14.25ZM13.4446 19.4445C13.0946 19.7945 12.6104 20.0116 11.7405 20.1285C10.849 20.2484 9.6711 20.25 8 20.25V21.75C9.6287 21.75 10.9257 21.7516 11.9404 21.6152C12.9766 21.4759 13.83 21.1804 14.5052 20.5053L13.4446 19.4445ZM8 20.25C6.32888 20.25 5.15099 20.2484 4.25948 20.1285C3.38955 20.0116 2.90544 19.7945 2.55545 19.4446L1.4948 20.5052C2.16994 21.1804 3.02335 21.4759 4.05962 21.6152C5.0743 21.7516 6.37129 21.75 8 21.75V20.25ZM2.55548 19.4446C2.20547 19.0946 1.98841 18.6104 1.87145 17.7405C1.75159 16.849 1.75 15.6711 1.75 14H0.25C0.25 15.6287 0.248407 16.9257 0.384829 17.9404C0.524152 18.9766 0.819658 19.83 1.49478 20.5052L2.55548 19.4446ZM1.75 14V8H0.25V14H1.75ZM4.2602 1.12329L4.3492 1.65731L5.8288 1.41073L5.7398 0.876706L4.2602 1.12329ZM4.3492 1.65732C4.44259 2.21762 4.5224 2.70428 4.63595 3.09117C4.75506 3.497 4.93367 3.87806 5.27744 4.18306L6.27294 3.06102C6.21985 3.01391 6.1518 2.9296 6.07525 2.66876C5.99314 2.38899 5.92829 2.00769 5.82879 1.41072L4.3492 1.65732ZM5.27745 4.18307C5.63303 4.49853 6.04253 4.63106 6.4812 4.69169C6.89478 4.74886 7.40518 4.75 8 4.75V3.25C7.37092 3.25 6.97592 3.24581 6.68657 3.20582C6.42232 3.1693 6.33136 3.11285 6.27293 3.06101L5.27745 4.18307ZM8 4.75C8.59482 4.75 9.10522 4.74886 9.5188 4.69169C9.95747 4.63106 10.367 4.49853 10.7225 4.18307L9.72706 3.06101C9.66863 3.11285 9.57768 3.1693 9.31343 3.20582C9.02408 3.24581 8.62908 3.25 8 3.25V4.75ZM10.7225 4.18308C11.0663 3.87807 11.2449 3.49699 11.364 3.09116C11.4776 2.70428 11.5574 2.21762 11.6508 1.65733L10.1712 1.41071C10.0717 2.00769 10.0069 2.38899 9.92475 2.66877C9.8482 2.9296 9.78016 3.0139 9.72707 3.061L10.7225 4.18308ZM11.6508 1.65731L11.7398 1.12329L10.2602 0.876706L10.1712 1.41073L11.6508 1.65731Z" fill="#73818D" fill-opacity="0.6"/>
</svg>
