<svg width="22" height="22" viewBox="0 0 22 22" fill="none" xmlns="http://www.w3.org/2000/svg">
<path d="M3.01569 13.0027L3.01391 13.7527C3.01942 13.7527 3.02492 13.7527 3.03042 13.7526L3.01569 13.0027ZM10.8765 15.3342L10.4449 15.9476L10.4449 15.9476L10.8765 15.3342ZM11.9697 15.9697C11.6768 16.2626 11.6768 16.7374 11.9697 17.0303C12.2626 17.3232 12.7374 17.3232 13.0303 17.0303L11.9697 15.9697ZM15.2391 15.7109C15.6317 15.5788 15.8429 15.1535 15.7109 14.7609C15.5788 14.3683 15.1535 14.1571 14.7609 14.2891L15.2391 15.7109ZM2.89124 19.1087L3.42158 18.5784L3.42156 18.5784L2.89124 19.1087ZM19.0002 14.25C18.586 14.25 18.2502 14.5858 18.2502 15C18.2502 15.4142 18.586 15.75 19.0002 15.75V14.25ZM20.3967 15.5638L19.9383 16.1574C20.1554 16.3251 20.4468 16.3608 20.698 16.2506C20.9493 16.1404 21.1203 15.9018 21.1439 15.6284L20.3967 15.5638ZM19.1088 2.89124L19.6391 2.36092L19.6391 2.3609L19.1088 2.89124ZM5.37943 0.976345C4.9706 1.04294 4.69316 1.42834 4.75976 1.83716C4.82635 2.24599 5.21175 2.52343 5.62057 2.45683L5.37943 0.976345ZM1.53033 0.46967C1.23744 0.176777 0.762563 0.176777 0.46967 0.46967C0.176777 0.762563 0.176777 1.23744 0.46967 1.53033L1.53033 0.46967ZM20.4697 21.5303C20.7626 21.8232 21.2374 21.8232 21.5303 21.5303C21.8232 21.2374 21.8232 20.7626 21.5303 20.4697L20.4697 21.5303ZM16.25 6.5C16.25 6.91421 15.9142 7.25 15.5 7.25V8.75C16.7426 8.75 17.75 7.74264 17.75 6.5H16.25ZM15.5 7.25C15.0858 7.25 14.75 6.91421 14.75 6.5H13.25C13.25 7.74264 14.2574 8.75 15.5 8.75V7.25ZM14.75 6.5C14.75 6.08579 15.0858 5.75 15.5 5.75V4.25C14.2574 4.25 13.25 5.25736 13.25 6.5H14.75ZM15.5 5.75C15.9142 5.75 16.25 6.08579 16.25 6.5H17.75C17.75 5.25736 16.7426 4.25 15.5 4.25V5.75ZM1.10024 13.8787C1.73297 13.7933 2.37285 13.7512 3.01391 13.7527L3.01747 12.2527C2.30835 12.251 1.6003 12.2977 0.899764 12.3921L1.10024 13.8787ZM3.03042 13.7526C5.73584 13.6994 8.36365 14.4831 10.4449 15.9476L11.3081 14.7208C8.95157 13.0627 6.00742 12.1938 3.00096 12.2528L3.03042 13.7526ZM10.4449 15.9476C12.3738 17.3046 13.7084 19.1571 14.2775 21.2012L15.7225 20.7988C15.0526 18.3927 13.4952 16.2596 11.3081 14.7208L10.4449 15.9476ZM13.0303 17.0303C13.4878 16.5728 13.8502 16.3137 14.174 16.1381C14.5056 15.9582 14.8202 15.8518 15.2391 15.7109L14.7609 14.2891C14.357 14.425 13.9216 14.5686 13.4589 14.8195C12.9884 15.0747 12.5122 15.4272 11.9697 15.9697L13.0303 17.0303ZM18.4922 18.6612C17.9558 19.1547 17.2243 19.4434 16.0182 19.595C14.7961 19.7486 13.2013 19.75 11 19.75V21.25C13.1622 21.25 14.868 21.2514 16.2053 21.0833C17.5587 20.9132 18.6454 20.5584 19.5078 19.765L18.4922 18.6612ZM11 19.75C8.73963 19.75 7.1198 19.7484 5.8879 19.5828C4.67758 19.42 3.95463 19.1114 3.42158 18.5784L2.3609 19.639C3.2191 20.4973 4.31136 20.8843 5.68802 21.0694C7.04311 21.2516 8.78203 21.25 11 21.25V19.75ZM3.42156 18.5784C2.88853 18.0453 2.57994 17.3224 2.41722 16.1121C2.25159 14.8802 2.25 13.2604 2.25 11H0.75C0.75 13.2179 0.748407 14.9569 0.930593 16.3119C1.11568 17.6886 1.50271 18.7809 2.36092 19.639L3.42156 18.5784ZM2.25 11C2.25 8.79866 2.25139 7.2038 2.40502 5.98169C2.55663 4.77565 2.84537 4.04414 3.33894 3.50769L2.23508 2.49207C1.44164 3.35444 1.08687 4.44119 0.916733 5.7946C0.748613 7.13195 0.75 8.83774 0.75 11H2.25ZM19.0002 15.75C19.2904 15.75 19.6304 15.9196 19.9383 16.1574L20.8551 14.9702C20.4656 14.6694 19.795 14.25 19.0002 14.25V15.75ZM21.1439 15.6284C21.2506 14.3943 21.25 12.8701 21.25 11H19.75C19.75 12.8949 19.7494 14.3443 19.6495 15.4992L21.1439 15.6284ZM21.25 11C21.25 8.78203 21.2516 7.04311 21.0694 5.68803C20.8843 4.31137 20.4973 3.21912 19.6391 2.36092L18.5785 3.42156C19.1115 3.95461 19.4201 4.67756 19.5828 5.88789C19.7484 7.1198 19.75 8.73963 19.75 11H21.25ZM19.6391 2.3609C18.7809 1.50271 17.6886 1.11568 16.312 0.930593C14.9569 0.748407 13.2179 0.75 11 0.75V2.25C13.2604 2.25 14.8802 2.25159 16.1121 2.41722C17.3224 2.57994 18.0454 2.88853 18.5785 3.42158L19.6391 2.3609ZM11 0.75C8.6176 0.75 6.78354 0.747637 5.37943 0.976345L5.62057 2.45683C6.8759 2.25236 8.56412 2.25 11 2.25V0.75ZM0.46967 1.53033L20.4697 21.5303L21.5303 20.4697L1.53033 0.46967L0.46967 1.53033Z" fill="#73818D" fill-opacity="0.6"/>
</svg>
