<svg width="210" height="52" viewBox="0 0 210 52" fill="none" xmlns="http://www.w3.org/2000/svg">
<path d="M40.5632 23.0931C40.5769 23.0931 40.5907 23.093 40.6045 23.093C45.1911 23.093 48.9091 26.8179 48.9091 31.4129C48.9091 35.6953 45.6795 39.2219 41.5273 39.6818M40.5632 23.0931C40.5905 22.7886 40.6045 22.4803 40.6045 22.1686C40.6045 16.5526 36.0603 12 30.4545 12C25.1456 12 20.7887 16.0834 20.3422 21.2862M40.5632 23.0931C40.3744 25.1906 39.5501 27.1043 38.2844 28.6395M20.3422 21.2862C15.6613 21.7324 12 25.682 12 30.4883C12 34.9606 15.17 38.6912 19.3818 39.5477M20.3422 21.2862C20.6335 21.2584 20.9287 21.2442 21.2273 21.2442C23.3049 21.2442 25.2222 21.9321 26.7646 23.093M30.9318 30.3463C34.1424 30.421 36.7123 32.2815 36.7123 36.327C36.7123 37.4297 36.5214 38.5832 36.1786 39.6818M30.9318 30.3463C30.8646 30.3448 30.797 30.344 30.7292 30.344C27.4248 30.3439 24.7461 32.1967 24.7461 36.327C24.7461 37.4297 24.937 38.5832 25.2798 39.6818M30.9318 30.3463V30.2955C30.9318 26.35 28.1742 23.8788 26.7955 23.1364M30.9318 30.3463V40" stroke="url(#paint0_linear_33_2469)" stroke-width="2.54545" stroke-linecap="round" stroke-linejoin="round"/>
<path d="M67.6253 19.5784C69.9143 19.5784 71.7514 20.3087 73.1368 21.7694C74.6427 23.3506 75.3957 25.3986 75.3957 27.9134C75.3957 30.3981 74.6427 32.4461 73.1368 34.0574C71.7665 35.5181 69.9293 36.2485 67.6253 36.2485C65.3063 36.2485 63.4615 35.5181 62.0912 34.0574C60.5853 32.4461 59.8324 30.3981 59.8324 27.9134C59.8324 25.4287 60.5853 23.3807 62.0912 21.7694C63.4766 20.3087 65.3213 19.5784 67.6253 19.5784ZM67.6253 22.4245C66.1797 22.4245 65.0427 22.9892 64.2145 24.1186C63.5067 25.0974 63.1528 26.3624 63.1528 27.9134C63.1528 29.6904 63.6121 31.0833 64.5307 32.0922C65.3288 32.9656 66.3604 33.4024 67.6253 33.4024C69.071 33.4024 70.2004 32.8376 71.0135 31.7082C71.7213 30.7294 72.0752 29.4645 72.0752 27.9134C72.0752 26.1365 71.6159 24.7435 70.6973 23.7346C69.8992 22.8612 68.8752 22.4245 67.6253 22.4245ZM88.2388 36H85.1443V34.3059C84.301 35.6009 83.1038 36.2485 81.5527 36.2485C80.1824 36.2485 79.1433 35.8419 78.4355 35.0287C77.8332 34.3209 77.532 33.3496 77.532 32.1148V24.0282H80.6492V31.4598C80.6492 32.8904 81.3118 33.6056 82.637 33.6056C83.3899 33.6056 83.9923 33.3948 84.444 32.9732C84.9108 32.5515 85.1443 31.9793 85.1443 31.2565V24.0282H88.2388V36ZM91.1891 24.0282H94.3063V26.3096C94.6978 24.6231 95.8121 23.7798 97.6493 23.7798C97.9354 23.7798 98.1387 23.7798 98.2592 23.7798L98.2818 26.8518C97.9053 26.7765 97.5138 26.7388 97.1072 26.7388C96.0832 26.7388 95.3754 26.9271 94.9839 27.3035C94.5321 27.7252 94.3063 28.4856 94.3063 29.5849V36H91.1891V24.0282ZM108.511 36H107.042L101.757 21.9727C101.847 24.8038 101.892 27.7026 101.892 30.6692V36H100.356V19.8268H102.389L107.81 34.2607L113.254 19.8268H115.219V36H113.683V31.7082C113.683 27.3864 113.721 24.1939 113.796 22.1308L108.511 36ZM128.503 30.3755H119.739C119.784 31.9416 120.19 33.1313 120.958 33.9445C121.621 34.6673 122.494 35.0287 123.579 35.0287C125.28 35.0287 126.432 34.1252 127.035 32.3181H128.503C127.675 34.9835 126.018 36.3162 123.533 36.3162C121.802 36.3162 120.461 35.6988 119.513 34.464C118.685 33.3647 118.27 31.9416 118.27 30.1948C118.27 28.192 118.813 26.6108 119.897 25.4513C120.845 24.4574 122.05 23.9605 123.511 23.9605C125.152 23.9605 126.425 24.5553 127.328 25.7449C128.126 26.784 128.525 28.1468 128.525 29.8334C128.525 29.9388 128.518 30.1195 128.503 30.3755ZM127.012 29.2009C126.952 27.9661 126.613 27.0024 125.996 26.3096C125.378 25.6019 124.557 25.248 123.533 25.248C122.509 25.248 121.674 25.5944 121.026 26.2871C120.379 26.9647 119.972 27.936 119.806 29.2009H127.012ZM131.411 24.2767H132.857V25.9482C133.76 24.6231 134.98 23.9605 136.516 23.9605C137.872 23.9605 138.896 24.3671 139.588 25.1802C140.115 25.7976 140.379 26.7388 140.379 28.0038V36H138.933V28.32C138.933 27.2358 138.745 26.4828 138.368 26.0612C137.917 25.5191 137.239 25.248 136.336 25.248C135.327 25.248 134.483 25.5944 133.806 26.2871C133.173 26.9195 132.857 27.8607 132.857 29.1106V36H131.411V24.2767ZM152.886 36H151.441V34.3511C150.552 35.6612 149.332 36.3162 147.781 36.3162C146.426 36.3162 145.402 35.9096 144.709 35.0965C144.182 34.4941 143.919 33.5529 143.919 32.2729V24.2767H145.364V31.9567C145.364 33.0409 145.553 33.7939 145.929 34.2155C146.381 34.7576 147.058 35.0287 147.962 35.0287C148.971 35.0287 149.814 34.6899 150.492 34.0122C151.124 33.3798 151.441 32.4311 151.441 31.1661V24.2767H152.886V36Z" fill="#73818D"/>
<defs>
<linearGradient id="paint0_linear_33_2469" x1="12" y1="12" x2="53.3773" y2="22.6655" gradientUnits="userSpaceOnUse">
<stop stop-color="#FE911D"/>
<stop offset="1" stop-color="#0993A7"/>
</linearGradient>
</defs>
</svg>
