<svg width="68" height="68" viewBox="0 0 68 68" fill="none" xmlns="http://www.w3.org/2000/svg">
<rect width="68" height="68" rx="34" fill="#FE911D"/>
<path d="M21.2773 31.4587C20.6952 29.8476 20.4041 29.0421 20.5283 28.526C20.664 27.9614 21.0655 27.5213 21.5787 27.3744C22.0479 27.2402 22.7778 27.5646 24.2376 28.2134C25.5288 28.7873 26.1744 29.0742 26.781 29.0583C27.4489 29.0407 28.0913 28.7729 28.6024 28.299C29.0666 27.8686 29.3779 27.1827 30.0006 25.811L31.3729 22.7879C32.5192 20.2626 33.0923 19 34 19C34.9076 19 35.4808 20.2626 36.6271 22.7879L37.9994 25.811C38.6221 27.1827 38.9335 27.8686 39.3976 28.299C39.9086 28.7729 40.5511 29.0407 41.219 29.0583C41.8256 29.0742 42.4712 28.7873 43.7624 28.2134C45.2222 27.5646 45.9521 27.2402 46.4213 27.3744C46.9345 27.5213 47.336 27.9614 47.4718 28.526C47.5958 29.0421 47.3048 29.8476 46.7227 31.4586L44.2207 38.3833C43.1503 41.3455 42.6152 42.8266 41.4952 43.6633C40.3753 44.5 38.9281 44.5 36.0337 44.5H31.9663C29.0719 44.5 27.6247 44.5 26.5047 43.6633C25.3848 42.8266 24.8497 41.3455 23.7793 38.3833L21.2773 31.4587Z" stroke="white" stroke-width="2.25"/>
<path d="M34 37H34.0135" stroke="white" stroke-width="3" stroke-linecap="round" stroke-linejoin="round"/>
<path d="M26.5 49H41.5" stroke="white" stroke-width="2.25" stroke-linecap="round"/>
</svg>
