<svg width="24" height="24" viewBox="0 0 24 24" fill="none" xmlns="http://www.w3.org/2000/svg">
<path d="M12.5 20.75C12.9142 20.75 13.25 20.4142 13.25 20C13.25 19.5858 12.9142 19.25 12.5 19.25V20.75ZM3.60746 19.0091L3.1426 19.5977L3.14262 19.5977L3.60746 19.0091ZM3.0528 18.4871L3.61265 17.988L3.61262 17.988L3.0528 18.4871ZM3.0528 5.5129L2.49299 5.01379L2.49298 5.0138L3.0528 5.5129ZM3.60746 4.99087L4.07228 5.57946L4.07229 5.57945L3.60746 4.99087ZM20.3925 4.99087L19.9277 5.57944L19.9277 5.57949L20.3925 4.99087ZM20.9472 5.5129L21.507 5.01378L21.507 5.01377L20.9472 5.5129ZM21.2463 10.5061C21.2497 10.9203 21.5882 11.2533 22.0024 11.25C22.4166 11.2466 22.7496 10.9081 22.7463 10.4939L21.2463 10.5061ZM17.75 20C17.75 20.4142 18.0858 20.75 18.5 20.75C18.9142 20.75 19.25 20.4142 19.25 20H17.75ZM19.25 13C19.25 12.5858 18.9142 12.25 18.5 12.25C18.0858 12.25 17.75 12.5858 17.75 13H19.25ZM15 15.75C14.5858 15.75 14.25 16.0858 14.25 16.5C14.25 16.9142 14.5858 17.25 15 17.25V15.75ZM22 17.25C22.4142 17.25 22.75 16.9142 22.75 16.5C22.75 16.0858 22.4142 15.75 22 15.75V17.25ZM12.5 19.25H10.5V20.75H12.5V19.25ZM10.5 19.25C8.6031 19.25 7.24353 19.2489 6.19895 19.1309C5.16816 19.0144 4.5436 18.7927 4.0723 18.4205L3.14262 19.5977C3.92599 20.2164 4.86841 20.4901 6.03058 20.6214C7.17896 20.7511 8.63832 20.75 10.5 20.75V19.25ZM4.07232 18.4205C3.90537 18.2887 3.75164 18.144 3.61265 17.988L2.49295 18.9862C2.69074 19.208 2.90819 19.4125 3.1426 19.5977L4.07232 18.4205ZM3.61262 17.988C3.22599 17.5543 2.99708 16.9852 2.87558 16.0324C2.75143 15.0589 2.75 13.7886 2.75 12H1.25C1.25 13.7489 1.24857 15.1317 1.38762 16.2221C1.52932 17.3333 1.82681 18.239 2.49298 18.9862L3.61262 17.988ZM2.75 12C2.75 10.2114 2.75143 8.94115 2.87558 7.96759C2.99708 7.01479 3.22599 6.44566 3.61262 6.012L2.49298 5.0138C1.82681 5.76101 1.52932 6.66669 1.38762 7.77785C1.24857 8.86826 1.25 10.2511 1.25 12H2.75ZM3.61261 6.01201C3.7517 5.856 3.90546 5.71121 4.07228 5.57946L3.14264 4.40228C2.9081 4.58749 2.69068 4.79206 2.49299 5.01379L3.61261 6.01201ZM4.07229 5.57945C4.54359 5.20725 5.16816 4.98556 6.19895 4.86912C7.24353 4.75112 8.60311 4.75 10.5 4.75V3.25C8.63832 3.25 7.17896 3.24888 6.03058 3.3786C4.86841 3.50988 3.926 3.78362 3.14263 4.40229L4.07229 5.57945ZM10.5 4.75H13.5V3.25H10.5V4.75ZM13.5 4.75C15.3969 4.75 16.7565 4.75112 17.8011 4.86912C18.8319 4.98556 19.4564 5.20725 19.9277 5.57944L20.8573 4.4023C20.074 3.78362 19.1316 3.50988 17.9694 3.3786C16.8211 3.24888 15.3617 3.25 13.5 3.25V4.75ZM19.9277 5.57949C20.0945 5.71123 20.2483 5.85602 20.3874 6.01203L21.507 5.01377C21.3093 4.79204 21.0919 4.58747 20.8573 4.40225L19.9277 5.57949ZM20.3874 6.01202C21.0598 6.7662 21.225 7.87904 21.2463 10.5061L22.7463 10.4939C22.726 7.9938 22.619 6.26096 21.507 5.01378L20.3874 6.01202ZM19.25 20V13H17.75V20H19.25ZM15 17.25H22V15.75H15V17.25ZM2 9.75H22V8.25H2V9.75Z" fill="#73818D"/>
</svg>
