<svg width="22" height="22" viewBox="0 0 22 22" fill="none" xmlns="http://www.w3.org/2000/svg">
<path d="M12 11.25C11.5858 11.25 11.25 11.5858 11.25 12C11.25 12.4142 11.5858 12.75 12 12.75V11.25ZM16 12.75C16.4142 12.75 16.75 12.4142 16.75 12C16.75 11.5858 16.4142 11.25 16 11.25V12.75ZM12 15.25C11.5858 15.25 11.25 15.5858 11.25 16C11.25 16.4142 11.5858 16.75 12 16.75V15.25ZM14 16.75C14.4142 16.75 14.75 16.4142 14.75 16C14.75 15.5858 14.4142 15.25 14 15.25V16.75ZM5.99981 4.25C5.5856 4.25 5.24981 4.58579 5.24981 5C5.24981 5.41421 5.5856 5.75 5.99981 5.75V4.25ZM6.00879 5.75C6.423 5.75 6.75879 5.41421 6.75879 5C6.75879 4.58579 6.423 4.25 6.00879 4.25V5.75ZM9.9998 4.25C9.58559 4.25 9.2498 4.58579 9.2498 5C9.2498 5.41421 9.58559 5.75 9.9998 5.75V4.25ZM10.0088 5.75C10.423 5.75 10.7588 5.41421 10.7588 5C10.7588 4.58579 10.423 4.25 10.0088 4.25V5.75ZM2.89124 2.89124L2.36091 2.36091L2.36091 2.36091L2.89124 2.89124ZM19.1088 2.89124L19.6391 2.36092L19.6391 2.3609L19.1088 2.89124ZM19.1088 19.1088L19.6391 19.6392L19.6392 19.6391L19.1088 19.1088ZM2.89124 19.1088L2.3609 19.6391L2.36092 19.6391L2.89124 19.1088ZM8.75 8C8.75 7.58579 8.41421 7.25 8 7.25C7.58579 7.25 7.25 7.58579 7.25 8H8.75ZM7.25 20.5C7.25 20.9142 7.58579 21.25 8 21.25C8.41421 21.25 8.75 20.9142 8.75 20.5H7.25ZM12 12.75H16V11.25H12V12.75ZM12 16.75H14V15.25H12V16.75ZM5.99981 5.75H6.00879V4.25H5.99981V5.75ZM9.9998 5.75H10.0088V4.25H9.9998V5.75ZM2.25 11C2.25 8.73963 2.25159 7.1198 2.41722 5.8879C2.57994 4.67757 2.88853 3.95462 3.42157 3.42157L2.36091 2.36091C1.50271 3.21911 1.11568 4.31137 0.930593 5.68803C0.748407 7.04311 0.75 8.78203 0.75 11H2.25ZM3.42157 3.42157C3.95462 2.88853 4.67757 2.57994 5.8879 2.41722C7.1198 2.25159 8.73963 2.25 11 2.25V0.75C8.78203 0.75 7.04311 0.748407 5.68803 0.930593C4.31137 1.11568 3.21911 1.50271 2.36091 2.36091L3.42157 3.42157ZM11 2.25C13.2604 2.25 14.8802 2.25159 16.1121 2.41722C17.3224 2.57994 18.0454 2.88853 18.5785 3.42158L19.6391 2.3609C18.7809 1.50271 17.6886 1.11568 16.312 0.930593C14.9569 0.748407 13.2179 0.75 11 0.75V2.25ZM18.5785 3.42156C19.1115 3.95461 19.4201 4.67756 19.5828 5.88789C19.7484 7.1198 19.75 8.73963 19.75 11H21.25C21.25 8.78203 21.2516 7.04311 21.0694 5.68803C20.8843 4.31137 20.4973 3.21912 19.6391 2.36092L18.5785 3.42156ZM19.75 11C19.75 13.2604 19.7484 14.8802 19.5828 16.1121C19.4201 17.3224 19.1115 18.0454 18.5785 18.5785L19.6392 19.6391C20.4973 18.7809 20.8843 17.6886 21.0694 16.312C21.2516 14.9569 21.25 13.2179 21.25 11H19.75ZM18.5785 18.5785C18.0454 19.1115 17.3224 19.4201 16.1121 19.5828C14.8802 19.7484 13.2604 19.75 11 19.75V21.25C13.2179 21.25 14.9569 21.2516 16.312 21.0694C17.6886 20.8843 18.7809 20.4973 19.6391 19.6392L18.5785 18.5785ZM11 19.75C8.73963 19.75 7.1198 19.7484 5.88789 19.5828C4.67756 19.4201 3.95461 19.1115 3.42156 18.5785L2.36092 19.6391C3.21912 20.4973 4.31137 20.8843 5.68803 21.0694C7.04311 21.2516 8.78203 21.25 11 21.25V19.75ZM3.42158 18.5785C2.88853 18.0454 2.57994 17.3224 2.41722 16.1121C2.25159 14.8802 2.25 13.2604 2.25 11H0.75C0.75 13.2179 0.748407 14.9569 0.930593 16.312C1.11568 17.6886 1.50271 18.7809 2.3609 19.6391L3.42158 18.5785ZM1.5 8.75H20.5V7.25H1.5V8.75ZM7.25 8V20.5H8.75V8H7.25Z" fill="#73818D"/>
</svg>
