<svg width="22" height="22" viewBox="0 0 22 22" fill="none" xmlns="http://www.w3.org/2000/svg">
<path d="M2.7168 9.002C2.7168 8.58779 2.38101 8.252 1.9668 8.252C1.55258 8.252 1.2168 8.58779 1.2168 9.002H2.7168ZM11.4668 20.752C11.881 20.752 12.2168 20.4162 12.2168 20.002C12.2168 19.5878 11.881 19.252 11.4668 19.252V20.752ZM20.7168 9.002C20.7168 8.58779 20.381 8.252 19.9668 8.252C19.5526 8.252 19.2168 8.58779 19.2168 9.002H20.7168ZM19.2168 10.502C19.2168 10.9162 19.5526 11.252 19.9668 11.252C20.381 11.252 20.7168 10.9162 20.7168 10.502H19.2168ZM13.9668 16.752C13.5526 16.752 13.2168 17.0878 13.2168 17.502C13.2168 17.9162 13.5526 18.252 13.9668 18.252V16.752ZM20.9668 18.252C21.381 18.252 21.7168 17.9162 21.7168 17.502C21.7168 17.0878 21.381 16.752 20.9668 16.752V18.252ZM16.7168 21.002C16.7168 21.4162 17.0526 21.752 17.4668 21.752C17.881 21.752 18.2168 21.4162 18.2168 21.002H16.7168ZM18.2168 14.002C18.2168 13.5878 17.881 13.252 17.4668 13.252C17.0526 13.252 16.7168 13.5878 16.7168 14.002H18.2168ZM5.9668 15.252C5.55258 15.252 5.2168 15.5878 5.2168 16.002C5.2168 16.4162 5.55258 16.752 5.9668 16.752V15.252ZM9.9668 16.752C10.381 16.752 10.7168 16.4162 10.7168 16.002C10.7168 15.5878 10.381 15.252 9.9668 15.252V16.752ZM9.82666 7.12315C9.93707 6.72392 9.70293 6.31078 9.30371 6.20037C8.90448 6.08997 8.49134 6.3241 8.38093 6.72333L9.82666 7.12315ZM5.84777 9.9567L5.94502 10.7004L5.94505 10.7004L5.84777 9.9567ZM2.48916 9.1155L3.00379 8.56993C2.97656 8.54423 2.94743 8.52062 2.91667 8.49927L2.48916 9.1155ZM1.07906 7.53503L1.77486 7.25511L1.77486 7.2551L1.07906 7.53503ZM1.28416 5.47026L1.98535 5.73639C1.98807 5.72924 1.99067 5.72205 1.99316 5.71483L1.28416 5.47026ZM1.96743 3.48946L2.67646 3.73404L2.67853 3.72786L1.96743 3.48946ZM2.92501 1.4172L3.45381 1.94905V1.94905L2.92501 1.4172ZM11.4749 1.00187L11.4855 0.251869H11.4749V1.00187ZM19.3848 1.95251L20.0782 1.66661C20.0722 1.65216 20.0658 1.6379 20.059 1.62385L19.3848 1.95251ZM21 7.07619L21.7345 7.22804C21.7448 7.17808 21.75 7.1272 21.75 7.07619H21ZM18.0003 9.8037L17.8019 9.08042L17.8019 9.08042L18.0003 9.8037ZM14.5414 8.24141C14.2699 7.92863 13.7962 7.8952 13.4834 8.16676C13.1706 8.43831 13.1372 8.912 13.4088 9.22478L14.5414 8.24141ZM8.73713 8.25995C8.47582 7.93856 8.00345 7.88987 7.68206 8.15118C7.36068 8.4125 7.31199 8.88487 7.5733 9.20625L8.73713 8.25995ZM10.9754 9.9567L10.965 10.7066H10.965L10.9754 9.9567ZM14.1802 8.42721L14.745 8.9207C14.7483 8.91683 14.7517 8.91293 14.755 8.90899L14.1802 8.42721ZM15.5868 7.15187C15.7131 6.75737 15.4956 6.33521 15.1011 6.20894C14.7066 6.08267 14.2845 6.30011 14.1582 6.69461L15.5868 7.15187ZM1.2168 9.002V14.002H2.7168V9.002H1.2168ZM1.2168 14.002C1.2168 15.395 1.2152 16.5152 1.33332 17.3937C1.45434 18.2938 1.71323 19.0517 2.31514 19.6536L3.37581 18.593C3.09904 18.3162 2.9186 17.9276 2.81994 17.1938C2.71839 16.4385 2.7168 15.4374 2.7168 14.002H1.2168ZM2.31514 19.6536C2.91706 20.2556 3.67493 20.5145 4.57504 20.6355C5.45358 20.7536 6.57378 20.752 7.9668 20.752V19.252C6.53138 19.252 5.53027 19.2504 4.77492 19.1488C4.04115 19.0502 3.65258 18.8697 3.37581 18.593L2.31514 19.6536ZM7.9668 20.752H11.4668V19.252H7.9668V20.752ZM19.2168 9.002V10.502H20.7168V9.002H19.2168ZM13.9668 18.252H20.9668V16.752H13.9668V18.252ZM18.2168 21.002V14.002H16.7168V21.002H18.2168ZM5.9668 16.752H9.9668V15.252H5.9668V16.752ZM8.38093 6.72333C8.13523 7.61177 7.26478 9.01494 5.75048 9.21304L5.94505 10.7004C8.32777 10.3887 9.5084 8.27399 9.82666 7.12315L8.38093 6.72333ZM5.75051 9.21303C5.02254 9.30824 4.38303 9.19681 3.89072 9.02864C3.38155 8.85471 3.0737 8.63587 3.00379 8.56993L1.97452 9.66107C2.23791 9.90953 2.74915 10.2238 3.40585 10.4481C4.07941 10.6782 4.95256 10.8302 5.94502 10.7004L5.75051 9.21303ZM2.91667 8.49927C2.79245 8.41309 2.53164 8.18643 2.27023 7.90774C1.9939 7.61315 1.8208 7.36929 1.77486 7.25511L0.383253 7.81495C0.542419 8.21059 0.89062 8.62949 1.1762 8.93395C1.47669 9.2543 1.81839 9.56296 2.06165 9.73173L2.91667 8.49927ZM1.77486 7.2551C1.77526 7.25609 1.76895 7.23998 1.76259 7.20016C1.75641 7.16144 1.75171 7.11001 1.75038 7.04527C1.74769 6.91439 1.75925 6.7562 1.78333 6.58448C1.83234 6.23493 1.92264 5.90162 1.98535 5.73639L0.582961 5.20413C0.474752 5.48924 0.359948 5.9334 0.297861 6.3762C0.26639 6.60065 0.245901 6.84235 0.250695 7.07604C0.25529 7.3 0.283662 7.56741 0.383257 7.81496L1.77486 7.2551ZM1.99316 5.71483L2.67643 3.73403L1.25842 3.24489L0.575153 5.22569L1.99316 5.71483ZM2.67853 3.72786C2.76298 3.47596 2.89445 3.08168 3.05139 2.70344C3.12974 2.5146 3.20967 2.34153 3.28749 2.19971C3.37035 2.0487 3.42905 1.97367 3.45381 1.94905L2.39621 0.885343C2.22081 1.05973 2.08059 1.28105 1.97244 1.47816C1.85923 1.68447 1.75607 1.9113 1.66591 2.12859C1.48584 2.5626 1.33867 3.00544 1.25633 3.25105L2.67853 3.72786ZM3.45381 1.94905C3.49204 1.91104 3.61229 1.84303 3.85775 1.79793C4.08252 1.75663 4.31271 1.75187 4.4694 1.75187V0.251869C4.2925 0.251869 3.95065 0.255758 3.5867 0.322622C3.24345 0.385686 2.75829 0.525341 2.39621 0.885343L3.45381 1.94905ZM4.4694 1.75187H11.4749V0.251869H4.4694V1.75187ZM11.4643 1.75179C12.3741 1.76466 13.8181 1.76058 15.1245 1.75539C16.4424 1.75015 17.6073 1.74391 17.9848 1.75171L18.0158 0.252029C17.6139 0.243726 16.4177 0.250237 15.1185 0.2554C13.8079 0.260608 12.3789 0.264577 11.4855 0.251944L11.4643 1.75179ZM17.9848 1.75171C18.1551 1.75523 18.3053 1.82611 18.4425 1.945C18.5868 2.06992 18.6799 2.21803 18.7106 2.28117L20.059 1.62385C19.953 1.40659 19.7436 1.08742 19.4246 0.811148C19.0986 0.528848 18.6249 0.26461 18.0158 0.252029L17.9848 1.75171ZM18.6914 2.23841C19.2676 3.63576 19.6622 4.72136 19.9115 5.53383C20.1675 6.36847 20.25 6.85233 20.25 7.07619H21.75C21.75 6.61178 21.6063 5.94393 21.3455 5.09386C21.0779 4.22162 20.6649 3.08951 20.0782 1.66661L18.6914 2.23841ZM20.2655 6.92434C20.1634 7.41838 19.716 8.55534 17.8019 9.08042L18.1987 10.527C20.7239 9.83426 21.533 8.20241 21.7345 7.22804L20.2655 6.92434ZM17.8019 9.08042C15.8904 9.60482 14.8581 8.60617 14.5414 8.24141L13.4088 9.22478C13.9127 9.80523 15.4962 11.2684 18.1987 10.527L17.8019 9.08042ZM7.5733 9.20625C8.01296 9.74698 9.22914 10.6826 10.965 10.7066L10.9858 9.20677C9.76826 9.18995 8.94697 8.51802 8.73713 8.25995L7.5733 9.20625ZM10.965 10.7066C11.8787 10.7192 12.6996 10.4078 13.334 10.0451C13.9675 9.68293 14.4643 9.24188 14.745 8.9207L13.6154 7.93372C13.4432 8.13086 13.076 8.46475 12.5895 8.74286C12.104 9.02044 11.5488 9.21455 10.9858 9.20677L10.965 10.7066ZM14.755 8.90899C14.9712 8.651 15.2851 8.09433 15.5868 7.15187L14.1582 6.69461C13.8855 7.54672 13.6456 7.89751 13.6054 7.94543L14.755 8.90899Z" fill="#73818D"/>
</svg>
