<svg width="112" height="112" viewBox="0 0 112 112" fill="none" xmlns="http://www.w3.org/2000/svg">
    <path d="M106.784 66.8287L108.807 65.3592L108.806 65.359L106.784 66.8287ZM103.835 63.8793L105.304 61.8569L105.304 61.8568L103.835 63.8793ZM40.1603 63.8793L41.6297 65.9019L41.6298 65.9018L40.1603 63.8793ZM37.2105 66.8287L35.1881 65.359L35.1879 65.3593L37.2105 66.8287ZM37.2105 103.837L35.1879 105.306L35.1881 105.306L37.2105 103.837ZM40.1603 106.786L41.6298 104.764L41.6297 104.763L40.1603 106.786ZM103.835 106.786L105.304 108.809L105.304 108.808L103.835 106.786ZM106.784 103.837L108.806 105.306L108.807 105.306L106.784 103.837ZM81.6293 75.439C80.5835 74.5376 79.0049 74.6546 78.1034 75.7005C77.202 76.7463 77.319 78.3249 78.3649 79.2263L81.6293 75.439ZM84.9032 81.5615L83.271 83.4551L83.271 83.4551L84.9032 81.5615ZM84.9032 89.1039L83.271 87.2102L83.271 87.2102L84.9032 89.1039ZM78.3649 91.439C77.319 92.3405 77.202 93.9191 78.1034 94.9649C79.0049 96.0107 80.5835 96.1278 81.6293 95.2263L78.3649 91.439ZM65.6293 79.2263C66.6751 78.3249 66.7922 76.7463 65.8907 75.7005C64.9893 74.6546 63.4107 74.5376 62.3649 75.439L65.6293 79.2263ZM59.0909 81.5615L60.7231 83.4551L60.7231 83.4551L59.0909 81.5615ZM59.0909 89.1039L60.7231 87.2102L60.7231 87.2102L59.0909 89.1039ZM62.3649 95.2263C63.4107 96.1278 64.9893 96.0107 65.8907 94.9649C66.7922 93.9191 66.6751 92.3405 65.6293 91.439L62.3649 95.2263ZM96.1641 46.0153C96.1641 47.3961 97.2834 48.5153 98.6641 48.5153C100.045 48.5153 101.164 47.3961 101.164 46.0153H96.1641ZM92.4155 9.01439L90.6337 10.768L90.6338 10.7681L92.4155 9.01439ZM8.91244 9.01439L7.1307 7.2607L7.13069 7.26071L8.91244 9.01439ZM8.91244 83.0164L7.13071 84.7701L7.13074 84.7701L8.91244 83.0164ZM18.1242 90.4404C19.4723 90.7385 20.8069 89.8874 21.1051 88.5392C21.4032 87.1911 20.5521 85.8565 19.204 85.5583L18.1242 90.4404ZM5.33073 21.4993C3.95002 21.4993 2.83073 22.6186 2.83073 23.9993C2.83073 25.3801 3.95002 26.4993 5.33073 26.4993V21.4993ZM95.9974 26.4993C97.3781 26.4993 98.4974 25.3801 98.4974 23.9993C98.4974 22.6186 97.3781 21.4993 95.9974 21.4993V26.4993ZM111.831 85.3327C111.831 80.3886 111.834 76.4798 111.498 73.376C111.156 70.2253 110.441 67.6089 108.807 65.3592L104.762 68.2982C105.674 69.5535 106.232 71.1894 106.527 73.9146C106.827 76.6866 106.831 80.2772 106.831 85.3327H111.831ZM108.806 65.359C107.83 64.0152 106.648 62.8335 105.304 61.8569L102.365 65.9018C103.285 66.57 104.093 67.3787 104.762 68.2983L108.806 65.359ZM105.304 61.8568C103.055 60.2223 100.438 59.5069 97.2874 59.1656C94.1836 58.8292 90.2748 58.8327 85.3307 58.8327V63.8327C90.3862 63.8327 93.9768 63.8361 96.7488 64.1365C99.474 64.4317 101.11 64.9898 102.365 65.9019L105.304 61.8568ZM85.3307 58.8327H58.6641V63.8327H85.3307V58.8327ZM58.6641 58.8327C53.72 58.8327 49.8112 58.8292 46.7074 59.1656C43.5567 59.5069 40.9404 60.2223 38.6907 61.8569L41.6298 65.9018C42.8851 64.9898 44.5208 64.4317 47.246 64.1365C50.018 63.8361 53.6086 63.8327 58.6641 63.8327V58.8327ZM38.6908 61.8568C37.3468 62.8333 36.1647 64.015 35.1881 65.359L39.2329 68.2983C39.9011 67.3788 40.7099 66.5702 41.6297 65.9019L38.6908 61.8568ZM35.1879 65.3593C33.5535 67.609 32.8383 70.2253 32.4969 73.376C32.1606 76.4798 32.1641 80.3886 32.1641 85.3327H37.1641C37.1641 80.2773 37.1675 76.6866 37.4678 73.9146C37.7631 71.1894 38.3211 69.5535 39.2331 68.2981L35.1879 65.3593ZM32.1641 85.3327C32.1641 90.2767 32.1606 94.1855 32.4969 97.2894C32.8383 100.44 33.5535 103.056 35.1879 105.306L39.2331 102.367C38.3211 101.112 37.7631 99.476 37.4678 96.7508C37.1675 93.9788 37.1641 90.3881 37.1641 85.3327H32.1641ZM35.1881 105.306C36.1647 106.65 37.3468 107.832 38.6908 108.809L41.6297 104.763C40.7099 104.095 39.9011 103.286 39.2329 102.367L35.1881 105.306ZM38.6907 108.808C40.9404 110.443 43.5567 111.158 46.7074 111.5C49.8112 111.836 53.72 111.833 58.6641 111.833V106.833C53.6086 106.833 50.018 106.829 47.246 106.529C44.5208 106.234 42.8851 105.676 41.6298 104.764L38.6907 108.808ZM58.6641 111.833H85.3307V106.833H58.6641V111.833ZM85.3307 111.833C90.2748 111.833 94.1836 111.836 97.2874 111.5C100.438 111.158 103.055 110.443 105.304 108.809L102.365 104.763C101.11 105.676 99.474 106.234 96.7488 106.529C93.9768 106.829 90.3862 106.833 85.3307 106.833V111.833ZM105.304 108.808C106.648 107.832 107.83 106.65 108.806 105.306L104.762 102.367C104.093 103.287 103.285 104.095 102.365 104.764L105.304 108.808ZM108.807 105.306C110.441 103.056 111.156 100.44 111.498 97.2894C111.834 94.1855 111.831 90.2767 111.831 85.3327H106.831C106.831 90.3881 106.827 93.9788 106.527 96.7508C106.232 99.4759 105.674 101.112 104.762 102.367L108.807 105.306ZM78.3649 79.2263L83.271 83.4551L86.5354 79.6678L81.6293 75.439L78.3649 79.2263ZM83.271 83.4551C84.3579 84.3919 84.9748 84.9309 85.3516 85.3565C85.6954 85.7449 85.4971 85.6688 85.4971 85.3327H90.4971C90.4971 83.892 89.783 82.8191 89.0955 82.0424C88.4409 81.303 87.5109 80.5086 86.5354 79.6678L83.271 83.4551ZM85.4971 85.3327C85.4971 84.9965 85.6954 84.9204 85.3516 85.3088C84.9748 85.7345 84.3579 86.2734 83.271 87.2102L86.5354 90.9976C87.5109 90.1567 88.4409 89.3624 89.0955 88.6229C89.783 87.8463 90.4971 86.7733 90.4971 85.3327H85.4971ZM83.271 87.2102L78.3649 91.439L81.6293 95.2263L86.5354 90.9975L83.271 87.2102ZM62.3649 75.439L57.4587 79.6678L60.7231 83.4551L65.6293 79.2263L62.3649 75.439ZM57.4588 79.6678C56.4832 80.5086 55.5532 81.303 54.8987 82.0424C54.2112 82.8191 53.4971 83.892 53.4971 85.3327H58.4971C58.4971 85.6688 58.2987 85.7449 58.6425 85.3565C59.0193 84.9309 59.6362 84.3919 60.7231 83.4551L57.4588 79.6678ZM53.4971 85.3327C53.4971 86.7733 54.2112 87.8463 54.8987 88.6229C55.5532 89.3624 56.4832 90.1567 57.4588 90.9976L60.7231 87.2102C59.6362 86.2734 59.0193 85.7345 58.6425 85.3088C58.2987 84.9204 58.4971 84.9965 58.4971 85.3327H53.4971ZM57.4587 90.9975L62.3649 95.2263L65.6293 91.439L60.7231 87.2102L57.4587 90.9975ZM101.164 46.0153C101.164 35.8674 101.169 28.0089 100.361 21.9044C99.5446 15.732 97.8564 10.9783 94.1973 7.26069L90.6338 10.7681C93.2232 13.3989 94.6593 16.9281 95.4046 22.5604C96.1589 28.2605 96.1641 35.7283 96.1641 46.0153H101.164ZM94.1973 7.26076C90.5331 3.53761 85.8381 1.81497 79.7442 0.982564C73.7263 0.160538 65.9822 0.166016 55.9974 0.166016V5.16602C66.1257 5.16602 73.4666 5.17149 79.0675 5.93656C84.5924 6.69124 88.05 8.14279 90.6337 10.768L94.1973 7.26076ZM55.9974 0.166016H45.3307V5.16602H55.9974V0.166016ZM45.3307 0.166016C35.3459 0.166016 27.6018 0.160538 21.5839 0.982565C15.49 1.81498 10.7952 3.53762 7.1307 7.2607L10.6942 10.7681C13.2781 8.14278 16.7358 6.69124 22.2606 5.93656C27.8615 5.17149 35.2023 5.16602 45.3307 5.16602V0.166016ZM7.13069 7.26071C3.47167 10.9783 1.7835 15.732 0.966715 21.9044C0.158916 28.0089 0.164062 35.8674 0.164062 46.0153H5.16406C5.16406 35.7283 5.16921 28.2605 5.9235 22.5604C6.66881 16.9281 8.10482 13.3989 10.6942 10.7681L7.13069 7.26071ZM0.164062 46.0153C0.164062 56.1634 0.158916 64.0219 0.966715 70.1264C1.7835 76.2988 3.47168 81.0526 7.13071 84.7701L10.6942 81.2627C8.10482 78.632 6.66881 75.1028 5.9235 69.4705C5.16921 63.7703 5.16406 56.3025 5.16406 46.0153H0.164062ZM7.13074 84.7701C10.0593 87.7454 13.6563 89.4522 18.1242 90.4404L19.204 85.5583C15.4105 84.7193 12.7747 83.3765 10.6941 81.2627L7.13074 84.7701ZM5.33073 26.4993H95.9974V21.4993H5.33073V26.4993Z" fill="#73818D" fill-opacity="0.32"/>
</svg>

