<svg width="22" height="22" viewBox="0 0 22 22" fill="none" xmlns="http://www.w3.org/2000/svg">
<path d="M7.53033 10.9697C7.23744 10.6768 6.76256 10.6768 6.46967 10.9697C6.17678 11.2626 6.17678 11.7374 6.46967 12.0303L7.53033 10.9697ZM9.5 14L8.96967 14.5303C9.11432 14.675 9.31178 14.7543 9.51629 14.7498C9.72081 14.7454 9.91464 14.6576 10.0529 14.5068L9.5 14ZM15.5529 8.50679C15.8328 8.20145 15.8121 7.72703 15.5068 7.44713C15.2015 7.16724 14.727 7.18787 14.4471 7.49321L15.5529 8.50679ZM21.75 11C21.75 5.06293 16.937 0.25 11 0.25V1.75C16.1086 1.75 20.25 5.89137 20.25 11H21.75ZM11 0.25C5.06294 0.25 0.25 5.06294 0.25 11H1.75C1.75 5.89136 5.89136 1.75 11 1.75V0.25ZM0.25 11C0.25 16.937 5.06293 21.75 11 21.75V20.25C5.89137 20.25 1.75 16.1086 1.75 11H0.25ZM11 21.75C16.937 21.75 21.75 16.937 21.75 11H20.25C20.25 16.1086 16.1086 20.25 11 20.25V21.75ZM6.46967 12.0303L8.96967 14.5303L10.0303 13.4697L7.53033 10.9697L6.46967 12.0303ZM10.0529 14.5068L15.5529 8.50679L14.4471 7.49321L8.94713 13.4932L10.0529 14.5068Z" fill="#0993A7"/>
</svg>
